<svg version="1.1" xmlns="http://www.w3.org/2000/svg" viewBox="0 0 902.8333435058594 503" width="902.8333435058594" height="503">
  <!-- svg-source:excalidraw -->
  
  <defs>
    <style class="style-fonts">
      @font-face {
        font-family: "Virgil";
        src: url("https://excalidraw.com/Virgil.woff2");
      }
      @font-face {
        font-family: "Cascadia";
        src: url("https://excalidraw.com/Cascadia.woff2");
      }
    </style>
  </defs>
  <rect x="0" y="0" width="902.8333435058594" height="503" fill="#ffffff"></rect><g stroke-linecap="round" transform="translate(207 189) rotate(0 165.5 50.5)"><path d="M-0.25 0.88 C103.23 -0.71, 205.8 1.29, 329.74 0.12 M0.42 0.61 C98.37 0.08, 198.32 0.07, 330.85 -0.47 M329.23 0.07 C333.76 19.9, 333.13 43.41, 332.64 99.12 M330.88 0.98 C330.43 34.73, 331.25 71.81, 331.37 101.84 M331.83 99.82 C206.41 103.78, 83.53 102.18, -0.83 101.43 M331.06 101.61 C231.36 101.98, 133.4 102.74, 0.65 101.34 M0.56 100.46 C-1.43 73.22, -1.38 46.78, 0.74 -0.89 M0.05 101.47 C1.03 64.39, 0.01 26.44, -0.31 0.01" stroke="#000000" stroke-width="1" fill="none"></path></g><g transform="translate(311 222) rotate(0 47.21666717529297 12.5)"><text x="0" y="0" font-family="Virgil, Segoe UI Emoji" font-size="20px" fill="#000000" text-anchor="start" style="white-space: pre;" direction="ltr" dominant-baseline="text-before-edge">TimeError</text></g><g stroke-linecap="round" transform="translate(205 10) rotate(0 169 35)"><path d="M-0.82 1.32 C105.28 2.95, 209.89 1.27, 338.64 -1.25 M-0.14 -0.3 C111 1.32, 221.38 1.51, 337.45 0.49 M338.72 -1.65 C337.08 20.74, 338.36 42.85, 338.49 69.63 M337.42 -0.47 C338 24.4, 337.2 49.63, 338.32 70.41 M337.25 69.78 C229.51 67.94, 119.36 68.3, -1.15 70.11 M337.34 69.41 C234.4 69.68, 131.2 69.06, -0.46 69.69 M-0.42 70.12 C-2.35 48.7, -1.65 25.63, -1.53 -1.88 M-0.72 70.97 C1.16 53, 1.21 34.05, -0.63 0.04" stroke="#000000" stroke-width="1" fill="none"></path></g><g transform="translate(351.96666717529297 32.5) rotate(0 22.03333282470703 12.5)"><text x="22.03333282470703" y="0" font-family="Virgil, Segoe UI Emoji" font-size="20px" fill="#000000" text-anchor="middle" style="white-space: pre;" direction="ltr" dominant-baseline="text-before-edge">Time</text></g><g stroke-linecap="round"><g transform="translate(326.5272672272355 186.47499999999997) rotate(0 1.2957625038422407 -53.62751408917828)"><path d="M0.71 0.99 C2.52 -32.82, 1.58 -65.16, 1.81 -107.17 M0.95 0.51 C0.96 -34.61, 0.94 -70.4, 1.88 -108.25" stroke="#000000" stroke-width="1" fill="none"></path></g><g transform="translate(326.5272672272355 186.47499999999997) rotate(0 1.2957625038422407 -53.62751408917828)"><path d="M12.34 -78.88 C10.62 -89.01, 6.37 -97.68, 2.21 -106.94 M12.57 -79.36 C9.19 -88.59, 5.56 -98.59, 2.28 -108.02" stroke="#000000" stroke-width="1" fill="none"></path></g><g transform="translate(326.5272672272355 186.47499999999997) rotate(0 1.2957625038422407 -53.62751408917828)"><path d="M-8.18 -79.26 C-3.83 -89.29, -2.03 -97.85, 2.21 -106.94 M-7.95 -79.74 C-4.72 -89.03, -1.75 -98.91, 2.28 -108.02" stroke="#000000" stroke-width="1" fill="none"></path></g></g><mask></mask><g transform="translate(205 112) rotate(0 49.94166564941406 12.5)"><text x="0" y="0" font-family="Virgil, Segoe UI Emoji" font-size="20px" fill="#000000" text-anchor="start" style="white-space: pre;" direction="ltr" dominant-baseline="text-before-edge">Calls ::now</text></g><g stroke-linecap="round"><g transform="translate(385 77) rotate(0 0.970170180022194 55.026805244944995)"><path d="M0.69 -0.69 C2.92 26.64, 0.62 56.07, 0.71 110.06 M0.7 -0.78 C0.27 27.13, -0.04 55.38, 0.83 110.83" stroke="#000000" stroke-width="1" fill="none"></path></g><g transform="translate(385 77) rotate(0 0.970170180022194 55.026805244944995)"><path d="M-9.06 82.07 C-5 88.37, -4.9 96.8, 0.45 110.16 M-9.05 81.98 C-7.11 89.3, -5.07 97.04, 0.57 110.93" stroke="#000000" stroke-width="1" fill="none"></path></g><g transform="translate(385 77) rotate(0 0.970170180022194 55.026805244944995)"><path d="M11.46 81.83 C10.31 88.29, 5.2 96.78, 0.45 110.16 M11.47 81.75 C8.32 89.31, 5.27 97.12, 0.57 110.93" stroke="#000000" stroke-width="1" fill="none"></path></g></g><mask></mask><g transform="translate(398 114) rotate(0 102.70833587646484 12.5)"><text x="0" y="0" font-family="Virgil, Segoe UI Emoji" font-size="20px" fill="#000000" text-anchor="start" style="white-space: pre;" direction="ltr" dominant-baseline="text-before-edge">Returns current time</text></g><g stroke-linecap="round" transform="translate(206 395) rotate(0 164 49)"><path d="M0.91 -0.53 C72.92 0.77, 144.61 1.05, 326.89 0.61 M-0.37 -0.31 C122.26 1.41, 245.73 1.05, 327.77 -0.37 M326.56 1.5 C330.2 18.62, 327.84 38.13, 326.58 99.23 M328.87 -1 C326.99 31.08, 328.72 62.54, 328.04 97.5 M328.21 97.28 C220.5 97.31, 114.73 98.56, 0.12 97.69 M328.37 98.48 C223.76 100.74, 118.09 100.55, -0.4 97.99 M-0.54 97.62 C-1.26 67.41, 0.37 34.59, -0.39 -0.09 M0.17 98.43 C-1.07 63.69, 0.29 30.66, 0.59 -0.85" stroke="#000000" stroke-width="1" fill="none"></path></g><g transform="translate(294 413) rotate(0 75.28333282470703 37.5)"><text x="0" y="0" font-family="Virgil, Segoe UI Emoji" font-size="20px" fill="#000000" text-anchor="start" style="white-space: pre;" direction="ltr" dominant-baseline="text-before-edge">Web Server</text><text x="0" y="25" font-family="Virgil, Segoe UI Emoji" font-size="20px" fill="#000000" text-anchor="start" style="white-space: pre;" direction="ltr" dominant-baseline="text-before-edge">worldtimeapi.org</text><text x="0" y="50" font-family="Virgil, Segoe UI Emoji" font-size="20px" fill="#000000" text-anchor="start" style="white-space: pre;" direction="ltr" dominant-baseline="text-before-edge"></text></g><g stroke-linecap="round"><g transform="translate(322 289) rotate(0 -0.20130247063934803 52.86670244531706)"><path d="M0.92 -1.62 C0.05 37.79, -1.28 73.3, -1.32 106.47 M-0.32 0.67 C-1.3 38.06, -0.73 77.34, -0.95 107.35" stroke="#000000" stroke-width="1" fill="none"></path></g><g transform="translate(322 289) rotate(0 -0.20130247063934803 52.86670244531706)"><path d="M-10.25 77.53 C-6.59 89.46, -4.04 97.4, -1.27 105.82 M-11.49 79.81 C-7.93 88.68, -3.35 99.42, -0.9 106.7" stroke="#000000" stroke-width="1" fill="none"></path></g><g transform="translate(322 289) rotate(0 -0.20130247063934803 52.86670244531706)"><path d="M10.27 77.56 C6.84 89.3, 2.29 97.22, -1.27 105.82 M9.03 79.85 C5.25 88.65, 2.49 99.38, -0.9 106.7" stroke="#000000" stroke-width="1" fill="none"></path></g></g><mask></mask><g transform="translate(107 314) rotate(0 100.86666870117188 25)"><text x="0" y="0" font-family="Virgil, Segoe UI Emoji" font-size="20px" fill="#000000" text-anchor="start" style="white-space: pre;" direction="ltr" dominant-baseline="text-before-edge">Calls Net::HTTP.get</text><text x="0" y="25" font-family="Virgil, Segoe UI Emoji" font-size="20px" fill="#000000" text-anchor="start" style="white-space: pre;" direction="ltr" dominant-baseline="text-before-edge">with a web address </text></g><g stroke-linecap="round"><g transform="translate(359 391) rotate(0 0.16071331902435304 -50.774903387296945)"><path d="M0.63 1.19 C1.14 -23.74, 1.65 -44.42, 0.42 -102.1 M-0.25 0.05 C-1.59 -26.35, -0.26 -53.93, -0.61 -102.74" stroke="#000000" stroke-width="1" fill="none"></path></g><g transform="translate(359 391) rotate(0 0.16071331902435304 -50.774903387296945)"><path d="M10.26 -73.35 C8.3 -81.9, 6.56 -86.11, -0.19 -101.84 M9.38 -74.49 C6.12 -81.54, 4.8 -89.84, -1.22 -102.49" stroke="#000000" stroke-width="1" fill="none"></path></g><g transform="translate(359 391) rotate(0 0.16071331902435304 -50.774903387296945)"><path d="M-10.26 -73.36 C-7.7 -81.75, -4.92 -85.94, -0.19 -101.84 M-11.14 -74.5 C-9.11 -81.7, -5.14 -90, -1.22 -102.49" stroke="#000000" stroke-width="1" fill="none"></path></g></g><mask></mask><g transform="translate(391 318) rotate(0 132.65834045410156 25)"><text x="0" y="0" font-family="Virgil, Segoe UI Emoji" font-size="20px" fill="#000000" text-anchor="start" style="white-space: pre;" direction="ltr" dominant-baseline="text-before-edge">Returns a JSON object</text><text x="0" y="25" font-family="Virgil, Segoe UI Emoji" font-size="20px" fill="#000000" text-anchor="start" style="white-space: pre;" direction="ltr" dominant-baseline="text-before-edge">which is parsed into a time</text></g><g stroke-linecap="round" transform="translate(156 148) rotate(0 214.5 97.5)"><path d="M0.54 -0.83 C139.09 -0.72, 278.32 -0.98, 428.52 0.76 M429.84 -0.34 C429.62 62.84, 429.68 129.9, 427.79 196.34 M428.75 194.22 C292.03 195.98, 154.29 194.97, 0.03 195.53 M1.47 193.48 C2.03 150.5, 0.89 105.27, 0.18 0.17" stroke="#000000" stroke-width="1.5" fill="none" stroke-dasharray="8 9"></path></g><g stroke-linecap="round"><g transform="translate(116 208) rotate(0 46.826725273393095 8.82932113064453)"><path d="M0.47 1.03 C36.53 5.29, 70.96 11.25, 92.3 17.7 M0.34 -0.04 C31.96 4.36, 65.35 10.76, 93.32 15.75" stroke="#000000" stroke-width="1" fill="none"></path></g><g transform="translate(116 208) rotate(0 46.826725273393095 8.82932113064453)"><path d="M64.22 21.87 C76.59 17.82, 87.21 15.99, 91.62 17.46 M64.09 20.79 C73.44 18.02, 84.41 17.09, 92.64 15.51" stroke="#000000" stroke-width="1" fill="none"></path></g><g transform="translate(116 208) rotate(0 46.826725273393095 8.82932113064453)"><path d="M67.87 1.67 C78.77 5.07, 88.04 10.7, 91.62 17.46 M67.74 0.6 C75.66 4.87, 85.36 10.96, 92.64 15.51" stroke="#000000" stroke-width="1" fill="none"></path></g></g><mask></mask><g transform="translate(10 190) rotate(0 47.28333282470703 12.5)"><text x="0" y="0" font-family="Virgil, Segoe UI Emoji" font-size="20px" fill="#000000" text-anchor="start" style="white-space: pre;" direction="ltr" dominant-baseline="text-before-edge">Call error</text></g><g stroke-linecap="round"><g transform="translate(536 234) rotate(0 40.85071427421644 -8.392371775582433)"><path d="M-1.82 -0.22 C21.23 -2.67, 39.68 -6.6, 82.01 -16.57 M0.61 -0.22 C21.21 -4.29, 42.83 -6.9, 83.52 -14.12" stroke="#000000" stroke-width="1" fill="none"></path></g><g transform="translate(536 234) rotate(0 40.85071427421644 -8.392371775582433)"><path d="M55.62 0.49 C65.29 -2.45, 70.35 -6.34, 82.52 -15.69 M58.04 0.48 C64.28 -3.37, 71.52 -5.93, 84.04 -13.25" stroke="#000000" stroke-width="1" fill="none"></path></g><g transform="translate(536 234) rotate(0 40.85071427421644 -8.392371775582433)"><path d="M52.19 -19.74 C62.5 -17.9, 68.37 -17.02, 82.52 -15.69 M54.61 -19.75 C61.76 -18.5, 69.87 -15.95, 84.04 -13.25" stroke="#000000" stroke-width="1" fill="none"></path></g></g><mask></mask><g transform="translate(633 212) rotate(0 129.9166717529297 12.5)"><text x="0" y="0" font-family="Virgil, Segoe UI Emoji" font-size="20px" fill="#000000" text-anchor="start" style="white-space: pre;" direction="ltr" dominant-baseline="text-before-edge">Calculates time difference</text></g></svg>